<?xml version="1.0" encoding="utf-8" ?>
<!DOCTYPE svg PUBLIC "-//W3C//DTD SVG 1.1//EN" "http://www.w3.org/Graphics/SVG/1.1/DTD/svg11.dtd">
<svg height="312" version="1.1" width="656" xmlns="http://www.w3.org/2000/svg">
<rect fill="#ffffff" height="68" stroke="#ffffff" stroke-width="1" width="66" x="518" y="22"/>
<rect fill="none" height="68" stroke="#000000" stroke-width="1" width="66" x="518" y="22"/>
<text font-family="Lucida Grande" font-size="13" x="532" y="36">
Policy</text>
<rect fill="#000000" height="1" stroke="#000000" stroke-width="1" width="66" x="518" y="46"/>
<rect fill="#000000" height="1" stroke="#000000" stroke-width="1" width="66" x="518" y="67"/>
<rect fill="#ffffff" height="68" stroke="#ffffff" stroke-width="1" width="66" x="518" y="158"/>
<rect fill="none" height="68" stroke="#000000" stroke-width="1" width="66" x="518" y="158"/>
<text font-family="Lucida Grande" font-size="13" x="537" y="172">
Rule</text>
<rect fill="#000000" height="1" stroke="#000000" stroke-width="1" width="66" x="518" y="182"/>
<rect fill="#000000" height="1" stroke="#000000" stroke-width="1" width="66" x="518" y="203"/>
<polyline fill="none" points="550,89 550,158" stroke="#000000" stroke-width="1"/>
<polygon fill="#000000" points="550,89 555,99 550,109 545,99" stroke="#000000" stroke-width="1"/>
<polygon fill="none" points="550,89 555,99 550,109 545,99" stroke="#000000" stroke-width="1"/>
<rect fill="#ffffff" height="68" stroke="#ffffff" stroke-width="1" width="71" x="14" y="14"/>
<rect fill="none" height="68" stroke="#000000" stroke-width="1" width="71" x="14" y="14"/>
<text font-family="Lucida Grande" font-size="13" x="22" y="28">
Contract</text>
<rect fill="#000000" height="1" stroke="#000000" stroke-width="1" width="71" x="14" y="38"/>
<rect fill="#000000" height="1" stroke="#000000" stroke-width="1" width="71" x="14" y="59"/>
<rect fill="#ffffff" height="68" stroke="#ffffff" stroke-width="1" width="70" x="14" y="158"/>
<rect fill="none" height="68" stroke="#000000" stroke-width="1" width="70" x="14" y="158"/>
<text font-family="Lucida Grande" font-size="13" x="19" y="172">
Assertion</text>
<rect fill="#000000" height="1" stroke="#000000" stroke-width="1" width="70" x="14" y="182"/>
<rect fill="#000000" height="1" stroke="#000000" stroke-width="1" width="70" x="14" y="203"/>
<polyline fill="none" points="54,81 54,158" stroke="#000000" stroke-width="1"/>
<polygon fill="#000000" points="54,81 59,91 54,101 49,91" stroke="#000000" stroke-width="1"/>
<polygon fill="none" points="54,81 59,91 54,101 49,91" stroke="#000000" stroke-width="1"/>
<rect fill="#ffffff" height="68" stroke="#ffffff" stroke-width="1" width="78" x="438" y="230"/>
<rect fill="none" height="68" stroke="#000000" stroke-width="1" width="78" x="438" y="230"/>
<text font-family="Lucida Grande" font-size="13" x="443" y="244">
Event Type</text>
<rect fill="#000000" height="1" stroke="#000000" stroke-width="1" width="78" x="438" y="254"/>
<rect fill="#000000" height="1" stroke="#000000" stroke-width="1" width="78" x="438" y="275"/>
<rect fill="#ffffff" height="68" stroke="#ffffff" stroke-width="1" width="126" x="86" y="230"/>
<rect fill="none" height="68" stroke="#000000" stroke-width="1" width="126" x="86" y="230"/>
<text font-family="Lucida Grande" font-size="13" x="91" y="244">
Assertion Property</text>
<rect fill="#000000" height="1" stroke="#000000" stroke-width="1" width="126" x="86" y="254"/>
<rect fill="#000000" height="1" stroke="#000000" stroke-width="1" width="126" x="86" y="275"/>
</svg>
