<?xml version="1.0" encoding="utf-8" ?>
<!DOCTYPE svg PUBLIC "-//W3C//DTD SVG 1.1//EN" "http://www.w3.org/Graphics/SVG/1.1/DTD/svg11.dtd">
<svg height="232" version="1.1" width="472" xmlns="http://www.w3.org/2000/svg">
<rect fill="#ffffff" height="68" stroke="#ffffff" stroke-width="1" width="89" x="14" y="14"/>
<rect fill="none" height="68" stroke="#000000" stroke-width="1" width="89" x="14" y="14"/>
<text font-family="Lucida Grande" font-size="13" x="19" y="28">
Requirement</text>
<rect fill="#000000" height="1" stroke="#000000" stroke-width="1" width="89" x="14" y="38"/>
<rect fill="#000000" height="1" stroke="#000000" stroke-width="1" width="89" x="14" y="59"/>
<rect fill="#ffffff" height="68" stroke="#ffffff" stroke-width="1" width="67" x="22" y="150"/>
<rect fill="none" height="68" stroke="#000000" stroke-width="1" width="67" x="22" y="150"/>
<text font-family="Lucida Grande" font-size="13" x="27" y="164">
Use Case</text>
<rect fill="#000000" height="1" stroke="#000000" stroke-width="1" width="67" x="22" y="174"/>
<rect fill="#000000" height="1" stroke="#000000" stroke-width="1" width="67" x="22" y="195"/>
<polyline fill="none" points="62,81 62,150" stroke="#000000" stroke-width="1"/>
<text font-family="Lucida Grande" font-size="13" x="35" y="102">
1</text>
<text font-family="Lucida Grande" font-size="13" x="34" y="141">
1..*</text>
<rect fill="#ffffff" height="68" stroke="#ffffff" stroke-width="1" width="106" x="310" y="14"/>
<rect fill="none" height="68" stroke="#000000" stroke-width="1" width="106" x="310" y="14"/>
<text font-family="Lucida Grande" font-size="13" x="315" y="28">
Service Activity</text>
<rect fill="#000000" height="1" stroke="#000000" stroke-width="1" width="106" x="310" y="38"/>
<rect fill="#000000" height="1" stroke="#000000" stroke-width="1" width="106" x="310" y="59"/>
<rect fill="#ffffff" height="68" stroke="#ffffff" stroke-width="1" width="66" x="334" y="150"/>
<rect fill="none" height="68" stroke="#000000" stroke-width="1" width="66" x="334" y="150"/>
<text font-family="Lucida Grande" font-size="13" x="346" y="164">
Action</text>
<rect fill="#000000" height="1" stroke="#000000" stroke-width="1" width="66" x="334" y="174"/>
<rect fill="#000000" height="1" stroke="#000000" stroke-width="1" width="66" x="334" y="195"/>
<polyline fill="none" points="366,81 366,150" stroke="#000000" stroke-width="1"/>
<polygon fill="#000000" points="366,81 371,91 366,101 361,91" stroke="#000000" stroke-width="1"/>
<polygon fill="none" points="366,81 371,91 366,101 361,91" stroke="#000000" stroke-width="1"/>
</svg>
